<?xml version="1.0" encoding="UTF-8"?>
<svg id="Camada_1" data-name="Camada 1" xmlns="http://www.w3.org/2000/svg" viewBox="0 0 7628.76 1949.04">
  <defs>
    <style>
      .cls-1 {
        fill: #fff;
      }

      .cls-2 {
        fill: none;
      }

      .cls-3 {
        letter-spacing: .01em;
      }

      .cls-4 {
        fill: #145a32;
      }

      .cls-5 {
        fill: #333;
        font-family: Cocogoose, Cocogoose;
        font-size: 849.71px;
      }

      .cls-6 {
        fill: #2ecc71;
      }

      .cls-7 {
        letter-spacing: -.02em;
      }
    </style>
  </defs>
  <g>
    <rect class="cls-6" x="1.88" y="28.65" width="1657.98" height="1657.98" rx="248.7" ry="248.7" transform="translate(-2.79 2.71) rotate(-.19)"/>
    <g>
      <path class="cls-1" d="M1488.08,985.86c.11,35.02-3.92,68.82-12.31,101.38-8.19,32.36-20.11,62.24-35.77,89.65-15.46,27.2-34.65,50.89-56.97,71.06-22.52,20.38-47.76,34.97-76.12,43.98-8.7,3.14-16.57,4.41-24.03,4.02-6.84-.39-14.09,2.12-21.74,7.12l.18,55.13c.12,37.3-30.45,68.08-67.76,68.2l-42.49.14c-37.51.12-68.08-30.45-68.2-67.76l-.15-46.42c-17-1.6-34.21-4.03-51.84-7.08-20.53-3.66-40.03-8.99-58.29-15.56-18.26-6.57-32.18-15.65-42.16-26.8-10.4-10.33-20.38-21.9-29.75-34.51-9.16-12.61-18.73-24.6-28.72-35.76-2.5-2.89-5.83-7.03-10.19-12.2-4.37-5.17-8.53-10.96-12.49-17.37-4.16-6.41-7.71-12.62-10.63-19.03-3.13-6.21-4.81-11.59-4.82-16.15-.02-6.01.79-10.99,2.23-15.14,1.64-4.15,3.5-8.3,5.97-12.87,3.09-5.19,11.35-13.51,24.58-24.74,13.23-11.24,27.49-22.89,42.79-34.75,15.3-12.07,29.77-22.48,43.42-31.43,13.44-9.16,22.34-13.54,26.69-13.56,8.7-.03,18.05,5.12,28.24,15.45,10.19,10.54,22.66,22.1,37.21,34.7,11.02,9.5,23.27,18.58,36.98,26.82,4.36,2.68,8.93,5.15,13.5,7.62,19.1,10.51,41.92,15.61,68.44,15.53,7.88-.03,18.44-.68,31.5-1.76,12.85-1.29,25.48-3.81,37.69-8,9.94-3.35,19.04-7.73,27.31-12.94,2.07-1.25,4.14-2.5,6-3.96,9.93-7.08,15.9-16.63,18.35-28.66,1.22-8.09,2.23-16.59,2.82-25.09.59-8.71,1.19-17,1.78-25.29l-4.77.02c-7.89-3.5-15.98-6.79-24.49-9.45-16.18-5.54-33.61-9.84-52.27-12.68-28.41-4.26-56.81-8.11-85.01-11.54-14.1-1.61-27.99-3.43-41.26-5.25-13.69-1.82-26.96-3.85-39.81-6.09-25.51-4.48-47.29-11.87-65.15-22.17-3.74-2.27-8.52-6.19-14.34-11.77-6.03-5.58-12.06-11.77-18.09-18.39-6.24-6.61-12.06-13.22-17.27-19.43-5.2-6.41-9.36-11.37-12.48-15.09-16.65-20.26-28.12-43.85-34.01-70.98-5.89-27.34-8.88-54.69-8.97-82.25-.15-44.77,4.89-89.55,15.11-134.35,1.22-6.84,7.2-17.43,17.93-31.97,10.73-14.54,22.7-29.92,35.91-45.92,13.21-16.21,26.22-30.97,38.82-44.48,12.6-13.51,21.69-22.04,27.07-25.79,4.34-2.91,9.73-4.59,16.15-5.03,6.63-.44,12.22-1.28,17.19-2.96,6.83-2.3,15.32-5.44,25.46-9.62,4.97-1.88,9.73-3.76,14.7-5.85l-.14-43.94c-.12-37.3,30.24-68.08,67.76-68.2l42.49-.14c37.31-.12,68.08,30.45,68.2,67.76l.13,38.55c15.55,3.47,30.69,6.95,45.84,10.63,7.48,5.99,15.17,11.97,23.06,18.37,8.1,6.19,16.41,11.55,25.13,16.08,11.63,5.97,24.5,12.77,38.41,20.6,13.91,7.83,26.79,16.91,38.84,27.23,12.06,10.53,22.25,22.73,30.79,37,8.34,14.07,12.53,30.42,12.6,49.08.03,10.57-4.9,22.81-14.8,36.94-9.69,14.33-21.26,27.84-34.48,40.53-13.22,12.68-26.87,23.51-40.93,32.46-14.27,8.96-25.66,13.56-34.15,13.58-4.35.01-14.31-4.51-29.68-13.79-15.57-9.27-32.81-19.79-51.91-31.33-2.7-1.65-5.19-3.09-7.89-4.53-16.4-9.69-33.01-18.54-49.62-26.57-19.1-9.26-34.45-13.77-46.26-13.73-7.88.03-16.99.88-27.14,2.78-10.15,1.9-19.88,5.04-28.78,9.63-8.9,4.59-16.34,10.83-22.53,19.14-1.44,2.08-2.89,4.36-4.12,6.64-3.5,6.85-5.13,14.73-5.1,23.64.03,9.12,1.71,17.4,5.26,24.23.21.21.21.62.42.83,3.75,7.03,8.75,13.03,14.98,17.98,6.03,4.75,12.67,8.66,19.93,11.54,7.06,3.09,13.9,5.34,20.75,6.77,14.1,2.85,28.62,4.88,43.54,5.87,14.72,1.2,29.23,2.39,43.33,3.8,10.58,1.62,22.19,3.24,35.25,5.07h.41c12.65,1.82,25.92,4.27,39.4,7.54,13.48,3.48,26.34,6.96,38.79,10.65,12.24,3.69,23.24,7.59,32.37,12.12,11.21,5.14,23.05,13.19,35.72,23.93,12.68,10.73,24.53,23.13,35.77,36.77,11.03,13.85,20.4,28.53,28.33,44.26,7.72,15.52,12.53,30.84,14.45,45.76,1.28,10.36,2.14,20.72,2.79,30.66.65,10.15,1.1,20.51,1.14,30.88Z"/>
      <path class="cls-1" d="M591.54,868.71h44.77c33.4,0,60.52,27.12,60.52,60.52v499.05h-165.8v-499.05c0-33.4,27.12-60.52,60.52-60.52Z" transform="translate(-3.73 2) rotate(-.19)"/>
      <path class="cls-1" d="M272.15,1139.11h78.65c24.05,0,43.58,19.53,43.58,43.58v246.57h-165.8v-246.57c0-24.05,19.53-43.58,43.58-43.58Z" transform="translate(-4.18 1.02) rotate(-.19)"/>
    </g>
  </g>
  <text class="cls-5" transform="translate(1758.37 766.15) rotate(-.19)"><tspan class="cls-3"><tspan x="0" y="0">Leaf</tspan></tspan><tspan class="cls-7"><tspan x="0" y="828.99">Cash</tspan></tspan></text>
  <path class="cls-4" d="M5480.9,1438.24c-.78.37-1.55.73-2.32,1.09-276.44,127.87-801.34,190.68-914.56-355.57-27.61-133.25-10.67-304.41-33.58-491.21-14.34-116.94-44.3-240-110.58-363.72-12.28-22.92,6.49-54.03,32.09-53.31,167.81,4.72,610.88,110.42,797.77,479.19,157.79,311.34,84.02,688.54,4.01,710.25-17.94,4.87-61.14-1.37-84-6-41.45-8.4-73.68-23.2-95-35,33.16-32.91,50.66-64.97,56.06-80.96,5.71-16.88,7.91-34.22,7.91-34.22.59-4.61.89-8.52,1.08-11.53,1.52-24.65-2.74-49.79-12.79-75.44-9.5-24.24-21.51-43.32-36.04-57.26-14.53-13.93-31.18-24.28-49.97-31.03-18.8-6.75-39.58-10.84-62.37-12.26-18.1-1.13-37.21-1.56-57.34-1.29-5.22.06-10.51.18-15.87.34-13.49.44-25.41.61-35.75.5-10.36-.11-19.35-1.02-26.97-2.75-7.63-1.71-13.89-4.37-18.77-7.96-4.89-3.6-8.61-8.66-11.17-15.19-2.55-6.52-3.33-12.61-2.31-18.25,1.02-5.64,3.35-10.79,6.99-15.44,3.64-4.65,8.33-8.84,14.08-12.58,5.74-3.72,12.16-6.98,19.27-9.76,6.89-2.7,14.1-4.25,21.65-4.66,2.14-.11,4.28-.17,6.41-.16,5.35,0,10.67.36,15.93,1.09,7.35,1.02,14.48,2.59,21.41,4.72,6.92,2.12,13.3,4.33,19.16,6.6l4.01,1.66c4.11,1.61,7.76,2.87,10.97,3.76,3.21.9,6.31.75,9.33-.43,3.66-1.43,6.55-4.84,8.66-10.24l27.08-76.35c1.52-4.36,2.48-8.1,2.87-11.21.4-3.11,0-6.18-1.18-9.22-1.19-3.02-4.06-6.07-8.61-9.12-4.55-3.06-10.22-5.94-17-8.67-6.78-2.72-14.43-5.3-22.96-7.74-8.53-2.43-17.37-4.54-26.52-6.35-10.55-2.09-33.36-5.11-62.1-2.07-9.36.99-17.02,2.4-22.15,3.47-.55-3.98-2.41-13.42-10-22-.58-.66-7.12-7.9-16.78-11.39-19.98-7.23-52.76,1.75-61.22,26.39-6.58,19.16,5.16,37.25,7,40-5.66,3.53-13.73,8.96-22.71,16.47-10.3,8.62-28.51,24.35-42.67,50.36-10.04,18.44-15.62,38.09-16.76,58.95-1.14,20.87,2.54,42.13,11.02,63.78,8.03,20.5,18.54,37.8,31.52,51.93,12.99,14.11,28.66,25.57,47,34.36,18.35,8.8,39.43,15.04,63.23,18.75,9.14,1.42,18.7,2.54,28.7,3.36,16.06,1.33,33.22,1.89,51.51,1.67,6.64-.18,14.55-.26,23.75-.24,9.2.03,18.32.81,27.38,2.37,9.05,1.55,17.23,4.2,24.53,7.92,7.29,3.72,12.35,9.19,15.18,16.4,2.56,6.53,4.06,13.06,4.51,19.6.45,6.54-.61,12.86-3.18,18.97-2.58,6.12-7.05,11.97-13.43,17.56-6.38,5.59-15.06,10.53-26.04,14.83-11.84,4.64-24.01,6.86-36.51,6.65-1.05-.02-2.1-.05-3.16-.09-11.58-.44-23.81-2.33-36.72-5.66-9.42-2.49-18.06-5.35-25.91-8.6-7.85-3.24-14.25-5.77-19.19-7.6-4.11-1.62-7.52-2.7-10.22-3.26-2.7-.55-5.02-.45-6.96.31-2.8,1.1-5.77,4.28-8.92,9.54l-33.27,79.58c-3.03,6.86-3.77,12.27-2.21,16.24,1.37,3.51,5.68,7.21,12.93,11.12.3.15.59.24.85.27s.59.24.99.62c.3.16.59.25.85.28.26.03.59.24.99.62l1.38.67c5,2.63,11.74,6.05,20.23,10.27,8.49,4.23,18.36,8.04,29.63,11.45,20.21,6.01,40.61,9.84,61.19,11.47,7.97.63,17.43.81,20.79.9,10.69.29,21.84.34,26.7.18,9.95-.32,27.37-2.55,52-14,68.47,37.21,127.98,49.49,167,54,136.99,15.83,269.42-35.42,278.96-39.91.84-.39,6.13-1.97,13.1-4.28,38.73-12.85,53.64,45.87,16.11,63.47Z"/>
  <path class="cls-2" d="M5126.99,1121.81c-9.5-24.24-21.51-43.32-36.04-57.26-14.53-13.93-31.18-24.28-49.97-31.03-18.8-6.75-39.58-10.84-62.37-12.26-18.1-1.13-37.21-1.56-57.34-1.29-5.22.06-10.51.18-15.87.34-13.49.44-25.41.61-35.75.5-10.36-.11-19.35-1.02-26.97-2.75-7.63-1.71-13.89-4.37-18.77-7.96-4.89-3.6-8.61-8.66-11.17-15.19-2.55-6.52-3.33-12.61-2.31-18.25,1.02-5.64,3.35-10.79,6.99-15.44,3.64-4.65,8.33-8.84,14.08-12.58,5.74-3.72,12.16-6.98,19.27-9.76,6.89-2.7,14.1-4.25,21.65-4.66,2.14-.11,4.28-.17,6.41-.16,5.35,0,10.67.36,15.93,1.09,7.35,1.02,14.48,2.59,21.41,4.72,6.92,2.12,13.3,4.33,19.16,6.6l4.01,1.66c4.11,1.61,7.76,2.87,10.97,3.76,3.21.9,6.31.75,9.33-.43,3.66-1.43,6.55-4.84,8.66-10.24l27.08-76.35c1.52-4.36,2.48-8.1,2.87-11.21.4-3.11,0-6.18-1.18-9.22-1.19-3.02-4.06-6.07-8.61-9.12-4.55-3.06-10.22-5.94-17-8.67-6.78-2.72-14.43-5.3-22.96-7.74-8.53-2.43-17.37-4.54-26.52-6.35-21.55-3.65-42.25-4.34-62.1-2.07-9.86,1.12-19.69,2.93-29.48,5.38-9.93,2.49-19.82,5.67-29.68,9.53-12.57,4.92-24.24,10.42-35.03,16.5-11.58,6.51-22.14,13.69-31.67,21.53-18.41,15.14-32.63,31.92-42.67,50.36-10.04,18.44-15.62,38.09-16.76,58.95-1.14,20.87,2.54,42.13,11.02,63.78,8.03,20.5,18.54,37.8,31.52,51.93,12.99,14.11,28.66,25.57,47,34.36,18.35,8.8,39.43,15.04,63.23,18.75,9.14,1.42,18.7,2.54,28.7,3.36,16.06,1.33,33.22,1.89,51.51,1.67,6.64-.18,14.55-.26,23.75-.24,9.2.03,18.32.81,27.38,2.37,9.05,1.55,17.23,4.2,24.53,7.92,7.29,3.72,12.35,9.19,15.18,16.4,2.56,6.53,4.06,13.06,4.51,19.6.45,6.54-.61,12.86-3.18,18.97-2.58,6.12-7.05,11.97-13.43,17.56-6.38,5.59-15.06,10.53-26.04,14.83-11.84,4.64-24.01,6.86-36.51,6.65-1.05-.02-2.1-.05-3.16-.09-11.58-.44-23.81-2.33-36.72-5.66-9.42-2.49-18.06-5.35-25.91-8.6-7.85-3.24-14.25-5.77-19.19-7.6-4.11-1.62-7.52-2.7-10.22-3.26-2.7-.55-5.02-.45-6.96.31-2.8,1.1-5.77,4.28-8.92,9.54l-33.27,79.58c-3.03,6.86-3.77,12.27-2.21,16.24,1.37,3.51,5.68,7.21,12.93,11.12.3.15.59.24.85.27s.59.24.99.62c.3.16.59.25.85.28.26.03.59.24.99.62l1.38.67c5,2.63,11.74,6.05,20.23,10.27,8.49,4.23,18.36,8.04,29.63,11.45,27,8.03,54.32,12.16,81.98,12.37,15.44.12,44.47-1.71,78.62-14.23,8.08-2.96,14.02-5.65,16.08-6.59,12.2-5.59,32.07-16.08,52.83-34.33,0,0,29.94-26.38,46.23-57.43.53-1.01,1.04-2.02,1.55-3.04,10.18-20.45,16-42.42,17.44-65.91,1.52-24.65-2.74-49.79-12.79-75.44Z"/>
  <text class="cls-5" transform="translate(5320.97 748) rotate(-.19)"><tspan class="cls-3"><tspan x="0" y="0">Leaf</tspan></tspan><tspan class="cls-7"><tspan x="0" y="828.99">Cash</tspan></tspan></text>
</svg>